<svg xmlns="http://www.w3.org/2000/svg" viewBox="0 0 49.92 50"><defs><style>.cls-1{fill:#f4f3f4;}</style></defs><title>calendar</title><g id="Layer_2" data-name="Layer 2"><g id="post"><path class="cls-1" d="M45.92,5h-6V0h-5V5h-20V0h-5V5H4A4,4,0,0,0,0,9V46a4,4,0,0,0,4,4H45.92a4,4,0,0,0,4-4V9A4,4,0,0,0,45.92,5Zm-1,40h-40V20h40Zm0-30h-40V10h40Z"/><rect class="cls-1" x="13.92" y="25" width="5" height="5"/><rect class="cls-1" x="23.92" y="25" width="5" height="5"/><rect class="cls-1" x="13.92" y="35" width="5" height="5"/><rect class="cls-1" x="3.92" y="35" width="5" height="5"/></g></g></svg>