<svg xmlns="http://www.w3.org/2000/svg" viewBox="0 0 56.61 56.61"><defs><style>.cls-1{fill:none;stroke:#333;stroke-miterlimit:10;}.cls-2{fill:#333;}</style></defs><title>fb-black</title><g id="Layer_2" data-name="Layer 2"><g id="refs"><path class="cls-1" d="M28.31,56.11A27.81,27.81,0,1,0,.5,28.31,27.81,27.81,0,0,0,28.31,56.11"/><path class="cls-2" d="M21.6,23.6h2.87V20.8c0-1.23,0-3.13.93-4.31a5.11,5.11,0,0,1,4.46-2.09,18,18,0,0,1,5.15.52l-.72,4.26A9.71,9.71,0,0,0,32,18.83c-1.12,0-2.12.4-2.12,1.52V23.6h4.58l-.32,4.16H29.86V42.21H24.47V27.76H21.6Z"/></g></g></svg>