<svg xmlns="http://www.w3.org/2000/svg" viewBox="0 0 48 48"><defs><style>.cls-1{fill:#fff;}.cls-2{fill:#90e0c3;}</style></defs><title>fb</title><g id="Layer_2" data-name="Layer 2"><g id="type"><circle class="cls-1" cx="24" cy="24" r="22.46"/><path class="cls-2" d="M24,0A24,24,0,1,0,48,24,24,24,0,0,0,24,0Zm5.3,19.94L29,23.53H25.34V36H20.69V23.53H18.21V19.94h2.48V17.53a6.43,6.43,0,0,1,.8-3.72A4.41,4.41,0,0,1,25.34,12a15.54,15.54,0,0,1,4.45.45l-.62,3.67a8.42,8.42,0,0,0-2-.3c-1,0-1.83.34-1.83,1.31v2.8Z"/></g></g></svg>