<svg xmlns="http://www.w3.org/2000/svg" viewBox="0 0 48 48"><defs><style>.cls-1{fill:#fff;}.cls-2{fill:#90e0c3;}</style></defs><title>instagram</title><g id="Layer_2" data-name="Layer 2"><g id="type"><circle class="cls-1" cx="24" cy="24" r="22.46"/><path class="cls-2" d="M33.35,16.92a3.7,3.7,0,0,0-.9-1.38,3.75,3.75,0,0,0-1.38-.9,6.65,6.65,0,0,0-2.23-.41c-1.27-.06-1.65-.07-4.85-.07s-3.58,0-4.85.07a6.65,6.65,0,0,0-2.23.41,4,4,0,0,0-2.28,2.28,6.65,6.65,0,0,0-.41,2.23c-.06,1.27-.07,1.64-.07,4.85s0,3.58.07,4.85a6.63,6.63,0,0,0,.41,2.23,4,4,0,0,0,2.28,2.28,6.63,6.63,0,0,0,2.23.41c1.27.06,1.65.07,4.85.07s3.58,0,4.85-.07a6.63,6.63,0,0,0,2.23-.41,3.74,3.74,0,0,0,1.38-.9,3.68,3.68,0,0,0,.9-1.38,6.63,6.63,0,0,0,.41-2.23c.05-1.27.07-1.64.07-4.85s0-3.58-.07-4.85A6.64,6.64,0,0,0,33.35,16.92ZM24,30.16A6.16,6.16,0,1,1,30.16,24,6.16,6.16,0,0,1,24,30.16ZM30.4,19a1.44,1.44,0,1,1,1.44-1.44A1.44,1.44,0,0,1,30.4,19Z"/><circle class="cls-2" cx="24" cy="24" r="4"/><path class="cls-2" d="M24,0A24,24,0,1,0,48,24,24,24,0,0,0,24,0ZM35.93,28.95a8.81,8.81,0,0,1-.56,2.91,6.13,6.13,0,0,1-3.51,3.51,8.8,8.8,0,0,1-2.91.56C27.67,36,27.26,36,24,36s-3.67,0-4.95-.07a8.77,8.77,0,0,1-2.91-.56,6.11,6.11,0,0,1-3.51-3.51,8.71,8.71,0,0,1-.56-2.91C12,27.67,12,27.26,12,24s0-3.67.07-4.95a8.71,8.71,0,0,1,.56-2.91,6.14,6.14,0,0,1,3.51-3.51,8.82,8.82,0,0,1,2.91-.56C20.33,12,20.74,12,24,12s3.67,0,4.95.07a8.85,8.85,0,0,1,2.91.56,6.16,6.16,0,0,1,3.51,3.51,8.81,8.81,0,0,1,.56,2.91C36,20.33,36,20.74,36,24S36,27.67,35.93,28.95Z"/></g></g></svg>