<svg xmlns="http://www.w3.org/2000/svg" viewBox="0 0 42 42"><defs><style>.cls-1{fill:#25120a;}</style></defs><title>JinAndCo</title><g id="Layer_2" data-name="Layer 2"><g id="type"><polygon class="cls-1" points="10.15 22.39 11.19 22.39 10.68 21.04 10.15 22.39"/><path class="cls-1" d="M20,30a1.68,1.68,0,0,0-.51-.35,1.62,1.62,0,0,0-1.26,0,1.67,1.67,0,0,0-.51.35,1.64,1.64,0,0,0-.35.52,1.56,1.56,0,0,0-.13.63,1.59,1.59,0,0,0,.13.63,1.63,1.63,0,0,0,.86.86,1.62,1.62,0,0,0,1.26,0,1.63,1.63,0,0,0,.86-.86,1.57,1.57,0,0,0,.13-.63,1.55,1.55,0,0,0-.13-.63A1.64,1.64,0,0,0,20,30Z"/><path class="cls-1" d="M26.8,19.27v3.31a2,2,0,0,0,1.34-.41,1.56,1.56,0,0,0,.47-1.25,1.55,1.55,0,0,0-.47-1.24A2,2,0,0,0,26.8,19.27Z"/><path class="cls-1" d="M0,0V42H42V0ZM18.25,6.83h2l2.12,3v-3H24.8v7.69h-2l-2.11-3v3H18.25ZM20,20v-3h2.41v7.69h-2l-2.11-3v3H15.84V17.08h2ZM13.68,6.83h2.61v7.69H13.68ZM7.76,12.68H8.6a.67.67,0,0,0,.5-.14.56.56,0,0,0,.13-.39V6.83h2.53v5.74a2,2,0,0,1-.49,1.51,2.31,2.31,0,0,1-1.56.44H7.76Zm5.77,22.1a6.16,6.16,0,0,1-.89.3,4.72,4.72,0,0,1-1.19.14,4.59,4.59,0,0,1-1.66-.29,3.94,3.94,0,0,1-1.31-.82,3.75,3.75,0,0,1-.86-1.27,4.21,4.21,0,0,1-.31-1.64,4.15,4.15,0,0,1,.32-1.67,3.89,3.89,0,0,1,.88-1.27,3.81,3.81,0,0,1,1.29-.81,4.33,4.33,0,0,1,1.57-.28,4.83,4.83,0,0,1,1.17.13,5.5,5.5,0,0,1,.88.29,4.07,4.07,0,0,1,.74.4L12.93,30.1l-.4-.27a3.9,3.9,0,0,0-.47-.18,2,2,0,0,0-.62-.09,1.66,1.66,0,0,0-1.18.47,1.59,1.59,0,0,0-.35.52,1.55,1.55,0,0,0-.13.63,1.53,1.53,0,0,0,.13.63,1.6,1.6,0,0,0,.36.51,1.69,1.69,0,0,0,.54.35,1.76,1.76,0,0,0,.68.13,2.12,2.12,0,0,0,.66-.09,2.4,2.4,0,0,0,.48-.21,1.65,1.65,0,0,0,.4-.3l1.21,2.13A3.42,3.42,0,0,1,13.52,34.78Zm-1.43-10-.25-.69H9.51l-.25.69H6.83l2.92-7.69H11.6l2.92,7.69Zm10.5,8a4,4,0,0,1-2.15,2.15,4,4,0,0,1-3.14,0,4,4,0,0,1-2.15-2.15,4,4,0,0,1,0-3.14,4,4,0,0,1,2.15-2.15,4,4,0,0,1,3.14,0,4,4,0,0,1,2.15,2.15,4,4,0,0,1,0,3.14Zm8.14-10.16a3.11,3.11,0,0,1-.89,1.21,4,4,0,0,1-1.43.73,6.93,6.93,0,0,1-1.93.25H24.35V17.08h2.13a7,7,0,0,1,1.93.24,3.89,3.89,0,0,1,1.43.73,3.13,3.13,0,0,1,.89,1.21,4.7,4.7,0,0,1,0,3.33Z"/></g></g></svg>