<svg xmlns="http://www.w3.org/2000/svg" viewBox="0 0 48 48"><defs><style>.cls-1{fill:#fff;}.cls-2{fill:#90e0c3;}</style></defs><title>twitter</title><g id="Layer_2" data-name="Layer 2"><g id="type"><circle class="cls-1" cx="24" cy="24" r="22.46"/><path class="cls-2" d="M24,0A24,24,0,1,0,48,24,24,24,0,0,0,24,0Zm9.58,20.27c0,.21,0,.42,0,.64A14,14,0,0,1,12,32.72a9.73,9.73,0,0,0,1.17.07,9.89,9.89,0,0,0,6.13-2.11,4.92,4.92,0,0,1-4.61-3.42,4.92,4.92,0,0,0,2.23-.09,4.93,4.93,0,0,1-4-4.84v-.06a4.92,4.92,0,0,0,2.24.62,4.94,4.94,0,0,1-1.53-6.58,14,14,0,0,0,10.17,5.15,4.94,4.94,0,0,1,8.4-4.5,9.8,9.8,0,0,0,3.13-1.2,4.94,4.94,0,0,1-2.17,2.73A9.84,9.84,0,0,0,36,17.71,9.9,9.9,0,0,1,33.58,20.27Z"/></g></g></svg>