<svg xmlns="http://www.w3.org/2000/svg" viewBox="0 0 56.61 56.61"><defs><style>.cls-1{fill:none;stroke:#333;stroke-miterlimit:10;}.cls-2{fill:#333;}</style></defs><title>twitter-black</title><g id="Layer_2" data-name="Layer 2"><g id="refs"><path class="cls-1" d="M28.31,56.11A27.81,27.81,0,1,0,.5,28.31,27.81,27.81,0,0,0,28.31,56.11"/><path class="cls-2" d="M42.26,21a11.44,11.44,0,0,1-3.28.9,5.72,5.72,0,0,0,2.51-3.16,11.38,11.38,0,0,1-3.63,1.38A5.72,5.72,0,0,0,28,24.06a5.62,5.62,0,0,0,.15,1.3,16.23,16.23,0,0,1-11.78-6A5.72,5.72,0,0,0,18.11,27a5.7,5.7,0,0,1-2.59-.71v.07A5.71,5.71,0,0,0,20.11,32a5.77,5.77,0,0,1-2.58.1,5.71,5.71,0,0,0,5.34,4,11.47,11.47,0,0,1-7.1,2.45,11.66,11.66,0,0,1-1.36-.08A16.2,16.2,0,0,0,23.16,41c10.51,0,16.26-8.71,16.26-16.26,0-.25,0-.5,0-.74a11.55,11.55,0,0,0,2.85-3"/></g></g></svg>